# File created by Blade
# Date/Time:  Tue Apr 07 20:29:34 2015
# Frame Rate: 120.000 fps
#------------------------------------------------------
:FULLY-SPECIFIED
:DEGREES
1722
root 3.876157 33.337239 -5.971466 -5.147544 -6.218588 -24.582835
Spine 8.027984 -8.327401 2.714094
Head 15.787014 -25.176333 18.402784
LeftShoulder -13.302559 40.722635 16.225996
LeftArm 54.723886 3.456538 -77.720654
LeftForeArm 1.621400 0.000000 14.024481
LeftHand 10.594363 -0.000000 4.399076
LeftHandThumb1 -26.253704 0.000000 33.147579
RightShoulder -8.256891 -5.580320 -11.098733
RightArm 6.152582 5.280148 70.793541
RightForeArm 16.403219 -0.000000 16.293443
RightHand 9.208113 -0.000000 9.660031
RightHandThumb1 -24.326973 -0.000000 -32.862282
LeftUpLeg -4.165668 9.432443 23.315567
LeftLeg 24.222787 -0.000000 -0.000000
LeftFoot -12.511083 -13.033885 -34.895471
LeftToeBase 3.993290 -0.000000 -0.000000
RightUpLeg -92.549293 -36.799188 3.556221
RightLeg 91.433375 -0.000000 -0.000000
RightFoot 41.141988 -14.671226 3.229876
RightToeBase 36.204693 -0.000000 -0.000000
1723
root 3.823320 33.344435 -6.014171 -5.017208 -5.993606 -24.928359
Spine 7.921039 -8.360567 2.882464
Head 15.695177 -25.285588 18.372991
LeftShoulder -13.259848 40.662837 16.276771
LeftArm 54.858635 2.770442 -78.116956
LeftForeArm 1.857693 -0.000000 14.913433
LeftHand 10.773857 -0.000000 6.353982
LeftHandThumb1 -26.253704 0.000000 33.147579
RightShoulder -8.293071 -5.438380 -11.274234
RightArm 6.257149 5.654489 70.228088
RightForeArm 16.442316 -0.000000 16.517944
RightHand 9.168359 0.000000 9.398563
RightHandThumb1 -24.326973 -0.000000 -32.862282
LeftUpLeg -4.343925 9.276223 23.628950
LeftLeg 24.047950 -0.000000 -0.000000
LeftFoot -12.931129 -12.767192 -34.342989
LeftToeBase 3.768555 -0.000000 -0.000000
RightUpLeg -92.396765 -36.711768 3.423699
RightLeg 90.846407 -0.000000 -0.000000
RightFoot 41.273534 -14.331802 3.121925
RightToeBase 36.943477 -0.000000 -0.000000
1724
root 3.771028 33.351069 -6.050293 -4.896762 -5.735960 -25.261099
Spine 7.795417 -8.435821 3.040356
Head 15.633508 -25.363314 18.324072
LeftShoulder -13.220859 40.558546 16.330125
LeftArm 54.910449 2.078383 -78.490983
LeftForeArm 1.657346 0.000000 15.830550
LeftHand 10.962154 -0.000000 7.247950
LeftHandThumb1 -26.253704 0.000000 33.147579
RightShoulder -8.334655 -5.279983 -11.418275
RightArm 6.353640 5.870412 69.568201
RightForeArm 16.609939 -0.000000 16.739352
RightHand 9.167072 -0.000000 9.204942
RightHandThumb1 -24.326973 -0.000000 -32.862282
LeftUpLeg -4.458953 9.103926 23.879669
LeftLeg 23.752193 -0.000000 -0.000000
LeftFoot -13.621065 -12.289781 -33.611740
LeftToeBase 3.734798 -0.000000 -0.000000
RightUpLeg -92.232631 -36.680112 3.289468
RightLeg 90.271390 -0.000000 -0.000000
RightFoot 41.275989 -14.381161 3.156176
RightToeBase 36.907463 -0.000000 -0.000000
1725
root 3.712937 33.362616 -6.085004 -4.805430 -5.482735 -25.693796
Spine 7.712173 -8.521055 3.300167
Head 15.565309 -25.451673 18.265660
LeftShoulder -13.195298 40.486270 16.370302
LeftArm 54.989413 1.312045 -78.917768
LeftForeArm 1.454536 -0.000000 16.706100
LeftHand 11.171046 -0.000000 7.954419
LeftHandThumb1 -26.253704 0.000000 33.147579
RightShoulder -8.367372 -5.183961 -11.539644
RightArm 6.500933 6.176517 68.918271
RightForeArm 16.715213 -0.000000 16.972624
RightHand 9.307009 -0.000000 8.952645
RightHandThumb1 -24.326973 -0.000000 -32.862282
LeftUpLeg -4.494634 8.906382 24.219488
LeftLeg 23.384365 -0.000000 -0.000000
LeftFoot -14.426819 -11.666338 -32.854412
LeftToeBase 4.403721 -0.000000 -0.000000
RightUpLeg -91.993726 -36.662190 3.231844
RightLeg 89.686125 -0.000000 -0.000000
RightFoot 41.169255 -14.781946 3.356580
RightToeBase 36.616857 -0.000000 -0.000000
1726
root 3.673484 33.365401 -6.131946 -4.657750 -5.312349 -25.918657
Spine 7.576756 -8.528402 3.380241
Head 15.498716 -25.474108 18.223067
LeftShoulder -13.164656 40.397007 16.408275
LeftArm 55.065367 0.540404 -79.279766
LeftForeArm 1.085071 -0.000000 17.531361
LeftHand 11.362823 -0.000000 8.572916
LeftHandThumb1 -26.253704 0.000000 33.147579
RightShoulder -8.361539 -5.009490 -11.655314
RightArm 6.611564 6.503142 68.252916
RightForeArm 16.802602 -0.000000 17.222598
RightHand 9.373395 0.000000 8.846488
RightHandThumb1 -24.326973 -0.000000 -32.862282
LeftUpLeg -4.563690 8.751013 24.271336
LeftLeg 22.994812 -0.000000 -0.000000
LeftFoot -15.383349 -10.790166 -32.056848
LeftToeBase 4.923227 -0.000000 -0.000000
RightUpLeg -91.788718 -36.476033 2.931448
RightLeg 89.004317 -0.000000 -0.000000
RightFoot 41.240125 -15.199720 3.365045
RightToeBase 35.547120 -0.000000 -0.000000
1727
root 3.631232 33.371170 -6.172190 -4.526081 -5.114676 -26.168814
Spine 7.446854 -8.583266 3.476080
Head 15.452886 -25.539080 18.179650
LeftShoulder -13.181403 40.300416 16.424220
LeftArm 55.129712 -0.253076 -79.643654
LeftForeArm 0.812101 -0.000000 18.298408
LeftHand 11.632143 0.000000 9.233257
LeftHandThumb1 -26.253704 0.000000 33.147579
RightShoulder -8.321013 -4.724430 -11.791864
RightArm 6.585414 6.912633 67.644398
RightForeArm 16.825035 -0.000000 17.479213
RightHand 9.468098 -0.000000 8.681727
RightHandThumb1 -24.326973 -0.000000 -32.862282
LeftUpLeg -4.605101 8.537697 24.348682
LeftLeg 22.598955 -0.000000 -0.000000
LeftFoot -16.373976 -9.798186 -31.159720
LeftToeBase 5.010360 -0.000000 -0.000000
RightUpLeg -91.589790 -36.356074 2.686745
RightLeg 88.411219 -0.000000 -0.000000
RightFoot 41.174257 -15.458219 3.284052
RightToeBase 35.064636 -0.000000 -0.000000
1728
root 3.576511 33.383675 -6.208084 -4.404832 -4.911926 -26.495615
Spine 7.310484 -8.616715 3.627607
Head 15.441722 -25.616655 18.166638
LeftShoulder -13.104680 40.234483 16.540175
LeftArm 55.189620 -1.056489 -79.978265
LeftForeArm 0.746655 0.000000 18.991105
LeftHand 11.712403 -0.000000 9.711645
LeftHandThumb1 -26.253704 0.000000 33.147579
RightShoulder -8.343982 -4.546421 -11.867104
RightArm 6.662995 7.277955 67.033505
RightForeArm 16.816282 0.000000 17.723812
RightHand 9.495135 0.000000 8.507931
RightHandThumb1 -24.326973 -0.000000 -32.862282
LeftUpLeg -4.646670 8.345749 24.529578
LeftLeg 22.234668 -0.000000 -0.000000
LeftFoot -17.416144 -8.687482 -30.143216
LeftToeBase 5.038994 -0.000000 -0.000000
RightUpLeg -91.410646 -36.277637 2.612102
RightLeg 87.881274 -0.000000 -0.000000
RightFoot 40.907931 -15.671905 3.254958
RightToeBase 35.957462 -0.000000 -0.000000
1729
root 3.537563 33.391361 -6.247382 -4.291598 -4.737958 -26.659876
Spine 7.187368 -8.654208 3.627261
Head 15.427019 -25.646282 18.162138
LeftShoulder -13.090772 40.102494 16.609512
LeftArm 55.207681 -1.821770 -80.203369
LeftForeArm 0.340926 -0.000000 19.614240
LeftHand 11.796975 0.000000 11.177123
LeftHandThumb1 -26.253704 0.000000 33.147579
RightShoulder -8.347620 -4.358634 -11.955839
RightArm 6.813800 7.581087 66.458241
RightForeArm 16.916487 -0.000000 17.850926
RightHand 9.625850 -0.000000 8.471976
RightHandThumb1 -24.326973 -0.000000 -32.862282
LeftUpLeg -4.700308 8.010817 24.514550
LeftLeg 21.899745 -0.000000 -0.000000
LeftFoot -18.368008 -7.448036 -29.330113
LeftToeBase 4.949977 -0.000000 -0.000000
RightUpLeg -91.203047 -36.164466 2.325008
RightLeg 87.276585 -0.000000 -0.000000
RightFoot 40.970659 -15.782472 3.103202
RightToeBase 34.155566 -0.000000 -0.000000
1730
root 3.493359 33.404732 -6.285782 -4.225382 -4.605387 -26.848324
Spine 7.129406 -8.685659 3.627670
Head 15.432638 -25.674093 18.184488
LeftShoulder -13.105526 40.061845 16.674618
LeftArm 55.288532 -2.598091 -80.420214
LeftForeArm 0.353106 -0.000000 20.145068
LeftHand 11.920287 -0.000000 11.753044
LeftHandThumb1 -26.253704 0.000000 33.147579
RightShoulder -8.334144 -4.127076 -12.036309
RightArm 6.926945 7.831436 65.929380
RightForeArm 16.995609 -0.000000 17.995809
RightHand 9.731021 -0.000000 8.288536
RightHandThumb1 -24.326973 -0.000000 -32.862282
LeftUpLeg -4.719775 7.605784 24.570985
LeftLeg 21.631909 -0.000000 -0.000000
LeftFoot -19.151181 -6.261100 -28.721149
LeftToeBase 4.372488 -0.000000 -0.000000
RightUpLeg -90.940941 -35.998206 2.054641
RightLeg 86.742094 -0.000000 -0.000000
RightFoot 40.946083 -15.847381 3.068711
RightToeBase 34.536848 -0.000000 -0.000000
1731
root 3.439906 33.426132 -6.321349 -4.209696 -4.532712 -27.121071
Spine 7.138824 -8.653669 3.696388
Head 15.421999 -25.697566 18.249813
LeftShoulder -13.096785 40.006294 16.782801
LeftArm 55.342883 -3.403233 -80.600224
LeftForeArm 0.239042 -0.000000 20.604930
LeftHand 12.157472 -0.000000 11.688734
LeftHandThumb1 -26.253704 0.000000 33.147579
RightShoulder -8.328858 -3.893042 -12.107688
RightArm 7.023021 8.062014 65.461341
RightForeArm 17.105979 -0.000000 18.136705
RightHand 9.818823 -0.000000 8.150266
RightHandThumb1 -24.326973 -0.000000 -32.862282
LeftUpLeg -4.673552 7.161742 24.777413
LeftLeg 21.385402 -0.000000 -0.000000
LeftFoot -19.755827 -5.215023 -28.342656
LeftToeBase 3.872532 -0.000000 -0.000000
RightUpLeg -90.620071 -35.775961 1.890144
RightLeg 86.251992 -0.000000 -0.000000
RightFoot 40.881378 -15.940107 3.137926
RightToeBase 35.174647 -0.000000 -0.000000
1732
root 3.388345 33.449316 -6.351703 -4.213679 -4.491495 -27.355493
Spine 7.153808 -8.573189 3.721337
Head 15.453273 -25.765564 18.343558
LeftShoulder -13.108931 39.975151 16.886137
LeftArm 55.426655 -4.156064 -80.719496
LeftForeArm 0.144469 -0.000000 20.965928
LeftHand 12.330553 0.000000 12.004031
LeftHandThumb1 -26.253704 0.000000 33.147579
RightShoulder -8.358082 -3.680698 -12.175447
RightArm 7.123993 8.271146 65.066502
RightForeArm 17.252947 0.000000 18.274041
RightHand 9.888161 -0.000000 8.004989
RightHandThumb1 -24.326973 -0.000000 -32.862282
LeftUpLeg -4.609395 6.718638 24.966868
LeftLeg 21.144757 -0.000000 -0.000000
LeftFoot -20.262904 -4.212625 -28.041598
LeftToeBase 2.691434 -0.000000 -0.000000
RightUpLeg -90.293776 -35.551263 1.730800
RightLeg 85.756816 -0.000000 -0.000000
RightFoot 40.863168 -16.338969 3.188798
RightToeBase 33.783336 -0.000000 -0.000000
1733
root 3.333917 33.475756 -6.381288 -4.229495 -4.506786 -27.580213
Spine 7.179824 -8.474537 3.729725
Head 15.509523 -25.777205 18.418055
LeftShoulder -13.100018 40.000499 16.995702
LeftArm 55.471136 -4.885975 -80.710686
LeftForeArm 0.169063 -0.000000 21.298232
LeftHand 12.338405 -0.000000 12.496254
LeftHandThumb1 -26.253704 0.000000 33.147579
RightShoulder -8.363107 -3.509527 -12.249547
RightArm 7.267389 8.530498 64.790139
RightForeArm 17.261103 0.000000 18.398110
RightHand 9.930804 -0.000000 7.769169
RightHandThumb1 -24.326973 -0.000000 -32.862282
LeftUpLeg -4.520421 6.288794 25.184872
LeftLeg 20.935696 -0.000000 -0.000000
LeftFoot -20.683302 -3.237998 -27.785013
LeftToeBase 2.213345 -0.000000 -0.000000
RightUpLeg -89.995707 -35.279567 1.629992
RightLeg 85.299960 -0.000000 -0.000000
RightFoot 40.751666 -16.876417 3.372166
RightToeBase 34.799273 -0.000000 -0.000000
1734
root 3.283012 33.501808 -6.406315 -4.252953 -4.566946 -27.776854
Spine 7.196674 -8.355487 3.733009
Head 15.612947 -25.789857 18.457777
LeftShoulder -13.115052 40.036064 17.059802
LeftArm 55.482296 -5.620734 -80.661953
LeftForeArm 0.226748 -0.000000 21.564036
LeftHand 12.418346 0.000000 13.005403
LeftHandThumb1 -26.253704 0.000000 33.147579
RightShoulder -8.325430 -3.400675 -12.372891
RightArm 7.419345 8.903320 64.646176
RightForeArm 17.220663 -0.000000 18.514906
RightHand 9.993438 -0.000000 7.557198
RightHandThumb1 -24.326973 -0.000000 -32.862282
LeftUpLeg -4.399709 5.897718 25.387677
LeftLeg 20.708061 -0.000000 -0.000000
LeftFoot -20.994355 -2.273462 -27.587691
LeftToeBase 1.178800 -0.000000 -0.000000
RightUpLeg -89.744669 -35.009512 1.587508
RightLeg 84.895120 -0.000000 -0.000000
RightFoot 40.646148 -17.288173 3.492948
RightToeBase 34.856072 -0.000000 -0.000000
